<svg width="388" height="377" viewBox="0 0 388 377" fill="none" xmlns="http://www.w3.org/2000/svg">
<g clip-path="url(#clip0_1:38)">
<path fill-rule="evenodd" clip-rule="evenodd" d="M312.679 18.144C352.903 30.6285 370.975 62.4611 373.568 107.717C375.727 145.416 366.9 180.128 363.166 217.687C358.972 259.878 383.233 313.37 350.368 341.11C317.503 368.849 267.549 336.889 224.563 334.673C191.879 332.987 156.551 328.105 128.914 329.688C86.9551 332.092 31.605 318.458 16.7644 279.156C1.58026 238.942 53.2012 204.519 66.1911 163.576C76.6949 130.468 57.3236 88.1387 82.4589 64.1648C107.594 40.191 152.218 58.2337 185.844 49.4523C226.982 38.7087 272.049 5.53333 312.679 18.144Z" fill="#F5FAFE"/>
<path d="M287.66 239.353L298.943 295.863L295.015 296.088L281.778 239.854L287.66 239.353Z" fill="#7C4231"/>
<path d="M223.087 250.114L216.887 250.797L224.072 293.089L227.999 292.864L223.087 250.114Z" fill="#663429"/>
<path d="M213.927 253.595C212.127 253.698 210.172 253.975 208.372 254.078C209.385 271.758 210.388 289.274 211.401 306.954L214.183 306.795C214.153 289.058 213.958 271.331 213.927 253.595Z" fill="#7C4231"/>
<path d="M152.275 249.407L146.345 249.09L131.398 297.74C132.881 297.819 134.517 297.725 136 297.805C141.482 281.724 146.801 265.652 152.275 249.407Z" fill="#663429"/>
<path d="M147.519 249.515C162.399 251.29 174.632 252.725 183.718 253.683C212.632 256.79 219.543 257.051 225.445 256.877C233.156 256.764 244.477 256.608 258.776 253.982C279.403 250.008 292.402 247.622 301.987 237.218C310.173 228.209 304.608 222.779 314.191 200.878C321.891 183.356 327.052 181.747 325.579 176.083C321.615 161.363 281.671 157.738 253.459 161.161C240.086 162.749 229.27 165.995 222.191 168.536C222.958 164.714 227.919 136.674 209.16 115.904C194.637 100.311 175.166 98.6344 164.597 97.5974C136.55 95.262 115.082 107.496 107.017 112.885C103.211 115.238 100.742 118.008 98.9187 120.575C88.9326 135.437 95.8244 161.157 114.944 185.355C113.953 185.247 108.342 184.747 103.657 188.958C102.876 189.66 99.4439 192.812 98.9068 197.77C98.5054 202.229 100.531 206.054 103.211 209.842C113.52 223.541 144.779 247.537 147.519 249.515Z" fill="#A0A9C9"/>
<path d="M300.074 203.822C299.999 202.513 299.592 198.265 296.594 194.659C293.249 190.745 288.62 190.189 286.628 189.81C251.574 185.577 234.128 187.726 233.964 187.736C210.723 189.067 188.367 191.497 166.74 195.199C172.044 207.542 177.349 219.885 182.644 232.064C220.933 229.706 259.212 227.185 297.5 224.828L300.074 203.822Z" fill="#4D5A80"/>
<path d="M112.095 109.802C112.095 109.802 104.016 117.82 102.614 127.755C101.806 133.714 102.934 139.07 105.437 145.495C113.081 164.274 127.766 179.858 135.591 187.458C128.651 186.705 121.885 186.107 114.945 185.355C113.897 184.265 112.831 182.849 111.765 181.431C111.765 181.431 107.326 175.609 104.014 169.393C99.3975 160.459 88.5034 139.404 97.2596 123.134C98.8818 119.921 102.818 114.111 112.095 109.802Z" fill="#D6D9E3"/>
<path d="M133.581 129.431C140.288 137.586 147.963 148.316 154.951 161.384C161.392 173.497 165.812 184.741 168.821 194.259C167.512 194.334 166.039 194.418 164.729 194.493C160.365 184.232 155.645 173.498 150.425 162.628C144.994 150.949 139.264 139.781 133.581 129.431Z" fill="#4D5A80"/>
<path d="M298.497 190.609C293.672 198.112 287.225 208.828 281.312 223.128C255.462 224.773 229.621 226.582 203.936 228.217C199.777 221.557 193.552 213.208 184.226 205.201C178.872 200.581 173.573 196.943 168.822 194.258C157.719 189.639 147.951 193.975 146.297 199.491C145.059 203.668 148.341 209.392 153.813 213.185C157.092 215.954 161.918 219.947 167.783 224.867C199.347 251.309 200.895 252.535 203.761 253.849C215.575 259.414 229.084 257.326 256.186 254.623C278.552 252.357 289.808 251.055 299.37 243.116C307.833 236.062 302.436 233.579 318.078 202.791C323.824 191.293 329.219 182.28 325.407 175.928C323.965 173.711 321.388 171.723 318.579 171.391C315.287 171.252 309.97 173.034 298.497 190.609Z" fill="#D6D9E3"/>
<path d="M147.253 127.333C147.889 126.968 158.053 141.004 166.66 159.399C173.021 172.995 176.671 185.105 178.785 193.359C177.486 193.598 176.176 193.673 174.877 193.912C172.636 186.321 169.206 175.184 163.691 162.032C154.916 140.691 146.618 127.698 147.253 127.333Z" fill="#4D5A80"/>
<path d="M180.492 122.801C181.464 122.581 188.093 137.969 192.581 156.107C196.024 170.364 197.372 182.44 197.851 190.79C196.542 190.865 195.405 191.094 194.096 191.169C192.982 183.185 191.142 171.136 188.007 156.534C183.66 135.102 179.683 123.012 180.492 122.801Z" fill="#4D5A80"/>
<path d="M194.759 122.477C195.404 122.276 202.454 139.282 206.82 161.04C209.132 172.733 210.022 182.537 210.415 189.413C209.115 189.652 207.816 189.89 206.343 189.975C205.902 182.28 204.909 170.676 202.638 156.845C198.983 136.031 194.277 122.669 194.759 122.477Z" fill="#4D5A80"/>
<path d="M161.889 124.852C162.689 124.478 172.553 139.024 180.043 157.975C185.423 171.628 188.071 183.466 189.368 191.767C188.231 191.997 187.25 192.053 186.113 192.282C184.19 184.51 180.906 173.036 175.853 159.365C168.05 137.803 161.089 125.227 161.889 124.852Z" fill="#4D5A80"/>
<path d="M210.745 132.817C213.615 134.099 217.526 136.866 222.402 141.328C227.278 145.789 232.33 150.285 235.794 156.215C237.163 158.557 238.509 165.585 235.683 164.84C226.792 162.479 216.287 156.642 209.514 150.403C207.86 148.859 205.905 147.474 204.638 145.609C200.581 139.711 204.023 129.822 210.745 132.817Z" fill="#DE7F56"/>
<path d="M258.162 107.65C258.854 105.623 258.978 104.86 258.316 104.575C257.784 104.333 255.801 105.165 254.847 106.867C252.061 111.888 250.59 111.302 248.981 111.078C249.144 110.496 249.317 109.96 249.514 109.537C250.727 106.805 248.773 105.206 248.551 105.848C247.439 108.939 245.615 110.283 244.458 112.718C243.302 115.154 244.489 118.652 244.208 121.255C242.785 134.488 232.308 144.943 232.168 152.435C232.113 155.63 232.099 164.259 235.641 164.873C238.561 165.384 243.479 156.103 243.479 156.103C248.646 145.414 250.717 133.847 251.704 125.722C252.974 124.593 254.572 123.535 255.214 122.28C256.887 118.902 255.39 120.199 257.377 117.608C257.92 116.897 258.147 114.044 258.427 112.559C259.384 107.861 258.02 108.108 258.162 107.65Z" fill="#DE7F56"/>
<path d="M153.824 151.699C153.6 154.813 152.325 159.418 149.781 165.516C147.236 171.615 144.889 176.448 140.465 181.757C138.718 183.855 134.93 180.717 133.857 178.027C131.184 171.32 131.457 166.89 136.739 156.787C137.632 154.707 138.268 152.405 139.599 150.571C143.787 144.723 154.343 144.41 153.824 151.699Z" fill="#DE7F56"/>
<path d="M220.597 134.066C220.872 132.225 220.735 133.704 217.717 131.289C214.764 128.955 212.029 126.409 209.223 123.972C206.886 121.933 204.315 118.805 201.254 117.754C190.593 114.088 182.191 118.346 171.723 119.367C165.077 118.399 160.056 119.729 153.9 121.365C144.091 124.002 144.226 132.664 140.438 137.045C138.824 138.914 133.258 149.61 133.096 150.025C135.742 153.28 141.196 154.609 144.705 156.847C146.459 157.966 150.871 161.821 152.88 162.338C153.974 162.625 154.314 152.917 155.303 152.491C158.654 151.103 159.395 159.353 164.798 171.946C168.687 180.968 170.637 182.877 174.526 191.899C175.815 194.877 175.198 196.414 177.451 198.732C180.93 202.283 184.925 206.053 189.685 205.74C196.272 205.318 203.581 204.575 209.544 201.484C213.824 199.277 217.849 196.557 222.049 194.202C225.414 192.312 233.578 189.626 234.365 185.369C235.645 178.487 227.316 178.738 224.239 176.384C223.291 175.662 226.64 175.486 221.887 169.929C213.602 160.238 210.289 152.328 210.289 152.328C210.289 152.328 219.019 144.244 220.597 134.066Z" fill="#002777"/>
<path d="M178.209 130.633C176.502 130.621 174.634 129.979 173.112 129.38C168.889 127.724 164.05 124.11 163.22 118.918C163.195 118.687 163.344 118.489 163.573 118.439C163.808 118.412 164.008 118.559 164.057 118.786C164.842 123.655 169.419 127.063 173.43 128.623C175.081 129.264 177.518 130.094 179.307 129.708C180.524 129.445 182.794 128.837 184.298 127.563C186.524 125.634 186.515 121.691 185.262 119.11C185.182 118.961 185.097 118.789 185.017 118.641C184.904 118.451 184.969 118.199 185.185 118.081C185.377 117.969 185.63 118.033 185.748 118.245C185.856 118.411 185.941 118.584 186.026 118.755C187.429 121.589 187.398 126.015 184.867 128.201C183.246 129.596 180.819 130.261 179.511 130.543C179.071 130.614 178.642 130.636 178.209 130.633Z" fill="#64D8B1"/>
<path d="M178.885 113.594C179.212 114.664 179.589 117.196 182.348 118.407C184.97 121.882 185.853 126.871 179.632 127.76C175.717 128.319 170.532 125.326 168.161 122.677C166.993 121.385 166.228 120.172 165.685 118.767C165.414 118.066 167.52 117.587 163.736 113.509C163.55 112.646 164.716 109.923 165.555 109.244C168.046 107.21 172.377 112.145 175.349 112.455C176.552 112.576 177.971 112.698 178.885 113.594Z" fill="#D97347"/>
<path d="M178.885 113.594C177.971 112.698 176.552 112.576 175.321 112.437C172.371 112.123 171.295 113.923 168.803 115.957C167.964 116.636 173.046 122.052 177.222 120.701C178.501 120.282 179.484 118.716 180.28 116.834C179.33 115.66 179.11 114.305 178.885 113.594Z" fill="#C56941"/>
<path d="M164.855 87.6056C167.586 87.0169 170.636 88.2368 172.889 89.5568C174.874 90.7447 178.673 91.5416 179.663 95.5814C181.251 102.058 182.551 102.182 183.096 105.605C183.426 107.696 180.802 117.695 177.109 119.061C174.616 119.979 169.603 118.113 163.448 113.404C160.887 111.438 158.342 108.874 156.109 105.648C154.36 103.103 153.839 98.3441 154.934 95.3994C155.726 93.2802 158.08 91.6085 159.942 90.3281C161.872 89.0328 162.582 88.0955 164.855 87.6056Z" fill="#DE7F56"/>
<path d="M161.091 97.565C161.644 96.7807 161.155 97.4089 163.052 97.8552C163.989 98.0809 165.071 98.0854 166.013 98.001C170.543 97.6188 179.949 93.0193 182.231 90.3932C183.873 88.5046 184.758 78.5934 178.615 71.2201C172.472 63.8467 152.383 68.177 146.074 79.2574C139.766 90.3376 143.945 107.343 151.841 110.757C155.725 112.166 163.608 113.703 163.735 113.509C163.915 113.232 159.509 108.836 159.372 106.751C159.192 104.461 161.664 104.903 162.772 105.923C162.987 106.138 163.533 106.662 163.687 106.154C164.137 104.678 162.752 103.599 161.965 102.509C160.518 100.587 159.79 99.4375 161.091 97.565Z" fill="#4C190A"/>
<path d="M160.238 95.2778C160.068 95.2669 159.901 95.1604 159.844 95.0064C159.251 93.2572 158.175 91.9444 157.035 90.5509C156.735 90.164 156.413 89.782 156.085 89.3774C155.949 89.1928 155.987 88.9232 156.152 88.7928C156.338 88.6575 156.611 88.6939 156.741 88.8558C157.041 89.2427 157.363 89.6246 157.663 90.0115C158.803 91.4051 159.977 92.8392 160.627 94.7425C160.699 94.9646 160.583 95.2036 160.358 95.2758C160.33 95.258 160.285 95.2679 160.238 95.2778Z" fill="#6B3B26"/>
<path d="M168.538 93.6418C168.368 93.6608 168.286 93.6442 168.177 93.5632C168.077 93.5038 168.003 93.3835 168.001 93.2583C167.98 93.0165 168.075 92.8774 168.662 92.2625C168.731 92.184 168.8 92.1056 168.822 92.0967C168.892 92.0182 168.952 91.9183 169.044 91.8311C169.443 91.3173 169.851 90.8251 170.071 90.3089C171.293 87.7048 171.672 85.6448 171.327 83.4277C171.283 83.1948 171.448 82.9773 171.67 82.9622C171.904 82.9167 172.123 83.0786 172.137 83.2988C172.508 85.7056 172.129 87.8909 170.821 90.6557C170.566 91.2112 170.132 91.7641 169.767 92.2385C170.936 91.6871 172.498 90.8508 173.644 89.807C177.337 86.4226 178.597 81.7964 176.977 77.4406C176.578 76.3991 175.372 74.3072 174.427 74.0401C174.2 73.9819 174.082 73.754 174.142 73.5288C174.203 73.3036 174.433 73.1846 174.66 73.2429C176.18 73.6771 177.497 76.4764 177.746 77.1522C179.477 81.8395 178.147 86.7947 174.195 90.4107C172.865 91.6291 171.056 92.5412 169.8 93.1281L169.734 93.1547C169.099 93.4635 168.752 93.6051 168.538 93.6418Z" fill="#6B3B26"/>
<path d="M291.982 303.731C293.652 305.462 294.941 307.987 296.446 309.849C298.149 311.954 299.846 314.035 301.571 316.134C303.363 318.314 301.867 318.398 300.167 320.095C299.636 320.638 299.245 321.721 298.376 321.813C297.952 321.856 297.098 320.9 296.81 320.677C295.471 319.587 294.331 318.312 293.087 317.107C291.022 315.105 288.816 313.228 286.911 311.073C286.593 310.713 285.089 309.303 285.237 308.653C285.538 307.377 288.23 305.823 289.243 305.177C290.051 304.694 291.329 303.04 291.982 303.731Z" fill="#FF8A66"/>
<path d="M273.368 271.293C272.022 275.528 266.257 289.791 265.208 295.626C264.736 296.558 261.637 297.108 260.789 297.742C260.642 297.845 259.635 294.284 259.381 294.219C257.551 293.64 257.595 287.714 257.174 286.094C257.019 285.486 256.851 284.263 257.514 283.882C258.898 283.061 259.269 285.001 260.335 283.821C261.24 282.223 262.674 274.833 263.561 270.365C264.566 265.445 273.624 270.478 273.368 271.293Z" fill="#FF8A66"/>
<path d="M251.955 284.391C250.822 286.157 249.856 288.36 253.162 293.896C253.581 294.615 253.954 295.342 254.258 296.084C255.573 299.175 256.08 302.535 256.698 305.514C257.149 307.603 257.629 309.496 258.498 310.971C259.905 313.377 263.729 316.853 267.066 316.063C268.507 315.729 268.072 314.492 267.722 313.427C266.942 311.029 266.26 303.406 266.475 298.939C266.592 296.586 268.58 294.447 268.263 292.305C268.102 291.223 264.761 291.207 264.004 291.156C262.982 291.091 261.833 293.786 261.234 293.012C259.662 290.952 259.298 285.922 260.33 283.798C260.563 283.32 260.28 282.787 259.758 282.709C257.034 282.322 251.955 284.391 251.955 284.391Z" fill="#103E77"/>
<path d="M264.775 306.435C264.659 306.34 264.569 306.146 264.599 305.95C264.619 305.708 264.778 305.555 264.981 305.606L265.083 305.632C265.341 305.718 266.007 305.908 266.173 305.896C266.448 305.836 266.686 305.713 266.942 305.564C266.799 305.571 266.628 305.56 266.486 305.567C265.648 305.581 264.719 305.615 264.348 304.674C264.286 304.497 264.27 304.31 264.309 304.159C264.406 303.829 264.685 303.674 264.969 303.541L264.992 303.537C265.344 303.389 265.724 303.259 266.087 303.158C266.087 303.158 266.087 303.158 266.11 303.153C265.131 302.96 264.332 302.705 264.157 302.006C264.013 301.443 264.498 301.243 264.717 301.149C264.927 301.008 265.147 300.914 265.39 300.814C265.204 300.735 265.015 300.633 264.797 300.514L264.769 300.496C264.439 300.305 263.915 299.991 263.958 299.411C264.064 298.343 265.088 298.408 265.917 298.467C266.161 298.485 266.553 298.519 266.635 298.455C266.803 298.347 266.999 298.471 267.098 298.71C267.198 298.95 267.133 299.202 266.963 299.31C266.753 299.45 266.39 299.434 265.947 299.386C265.606 299.365 264.948 299.317 264.696 299.49C264.752 299.525 264.835 299.578 264.947 299.65C264.975 299.667 264.997 299.662 265.003 299.685C265.504 300.005 266.029 300.105 266.583 300.223L266.708 300.244C266.81 300.269 266.912 300.296 267.018 300.344C267.385 300.265 267.597 300.242 267.739 300.569L267.744 300.592C267.839 300.809 267.814 301.027 267.728 301.188C267.589 301.433 267.339 301.391 267.058 301.309L267.035 301.314C266.272 301.455 265.668 301.656 265.092 301.995C265.378 302.099 265.836 302.214 266.459 302.318C266.606 302.334 266.73 302.354 266.809 302.385L266.837 302.402C267.576 302.6 267.733 302.661 267.833 302.9C267.885 303.032 267.915 303.168 267.898 303.314C267.823 303.639 267.554 303.721 267.122 303.837C267.076 303.848 267.031 303.858 267.007 303.862C266.76 303.939 266.54 304.034 266.292 304.111C265.936 304.236 265.573 304.338 265.243 304.48L265.221 304.485C265.151 304.5 265.11 304.533 265.065 304.542C265.366 304.715 265.941 304.71 266.369 304.689C266.939 304.661 267.469 304.666 267.836 304.919C267.975 305.009 268.07 305.226 268.091 305.435C268.119 305.786 267.892 306.072 267.745 306.175C267.681 306.212 267.6 306.277 267.513 306.319C267.157 306.563 266.75 306.793 266.314 306.887C266.108 306.932 265.701 306.829 264.98 306.604L264.902 306.574C264.859 306.488 264.808 306.475 264.775 306.435Z" fill="white"/>
<path d="M262.49 314.221C260.124 312.83 258.666 310.745 257.798 307.606C257.2 305.502 257.052 303.585 256.89 301.719C256.73 299.639 256.571 297.677 255.773 295.758C254.201 291.915 253.66 289.964 253.581 287.7C253.573 287.44 253.768 287.232 254.03 287.223C254.292 287.214 254.502 287.406 254.51 287.666C254.592 289.834 255.104 291.649 256.634 295.405C257.484 297.456 257.635 299.491 257.809 301.639C257.961 303.46 258.1 305.331 258.678 307.345C259.715 311.042 261.522 313.076 264.889 314.322C265.125 314.414 265.252 314.672 265.164 314.929C265.07 315.162 264.81 315.29 264.55 315.203C263.82 314.933 263.125 314.608 262.49 314.221Z" fill="white"/>
<path d="M217.98 185.789C220.78 185.304 223.258 184.983 225.622 184.806C236.047 184.032 243.881 186.169 265.464 189.025C274.414 190.209 297.136 192.891 300.207 202.684C303.02 211.725 301.536 212.306 298.549 220.958C297.363 224.373 296.164 227.839 294.873 231.207C289.378 245.388 285.184 260.145 278.413 273.865C277.879 274.954 274.56 281.847 273.362 282.747C272.823 283.149 266.226 281.957 265.488 281.878C264.377 281.738 260.308 281.355 259.588 280.465C259.588 280.465 260.867 274.7 261.637 270.804C264.391 256.5 267.72 242.073 271.355 227.959C272.241 224.489 273.29 220.889 274.532 217.508C274.727 216.967 275.75 215.25 275.457 214.672C275.287 214.328 232.833 212.478 220.075 210.119C216.273 209.418 208.775 208.278 207.26 203.923C205.735 199.524 213.836 186.515 217.98 185.789Z" fill="#0046E3"/>
<path d="M269.602 262.624C269.555 262.634 269.528 262.616 269.478 262.603C269.246 262.534 269.118 262.277 269.195 262.071C270.214 258.999 271.173 255.87 272.106 252.842C273.475 248.388 274.88 243.761 276.508 239.275C277.668 236.079 278.965 232.734 280.218 229.518C282.495 223.704 284.826 217.689 286.567 211.944C286.955 210.625 288.218 204.674 287.798 203.837C286.752 203.326 284.265 203.601 282.624 203.788C282.155 203.842 281.732 203.885 281.401 203.909C275.749 204.32 271.133 204.745 266.923 205.272C254.547 206.799 242.357 205.625 231.704 201.886C231.472 201.817 231.368 201.555 231.438 201.325C231.509 201.096 231.775 200.992 232.006 201.06C242.552 204.751 254.595 205.91 266.835 204.412C271.067 203.88 275.683 203.456 281.358 203.039C281.666 203.021 282.088 202.978 282.534 202.929C284.41 202.714 286.994 202.443 288.263 203.096C288.671 203.317 289.051 203.853 288.378 207.752C288.021 209.777 287.505 211.837 287.412 212.189C285.682 217.981 283.328 224 281.055 229.837C279.803 233.052 278.506 236.397 277.34 239.571C275.731 244.029 274.298 248.639 272.955 253.11C272.023 256.138 271.069 259.291 270.027 262.366C269.959 262.5 269.772 262.636 269.602 262.624Z" fill="#2B2B2B"/>
<path d="M225.42 210.844C230.353 211.444 236.809 211.978 243.425 212.476L232.371 202.978L225.42 210.844Z" fill="#2B2B2B"/>
<path d="M225.621 184.806C225.621 184.806 227.2 194.92 231.529 201.971C237.508 211.66 244.738 220.58 251.001 230.137C254.61 235.631 258.722 240.781 262.163 246.383C263.826 249.089 264.593 251.752 265.267 254.767C265.821 257.118 269.592 261.914 270.829 263.975C275.047 270.954 278.977 278.044 283.346 284.944C287.136 290.946 287.438 291.45 291.037 297.566C291.451 298.261 295.028 303.382 294.942 303.876C294.849 304.443 288.87 311.363 286.248 313.353C285.774 313.717 284.104 315.551 283.534 315.246C275.599 308.07 274.788 301.853 267.252 292.404C260.609 284.094 252.357 276.558 249.141 272.333C239.862 260.148 228.275 247.842 217.615 236.715C204.705 220.94 193.233 217.188 189.346 205.503C188.08 202.64 185.807 192.2 189.832 190.929C210.647 184.422 225.621 184.806 225.621 184.806Z" fill="#0046E3"/>
<path d="M206.528 218.694C206.328 218.547 206.316 218.265 206.447 218.094C206.596 217.896 206.882 217.882 207.058 218.034C207.491 218.369 209.321 220.73 211.661 223.79C212.489 224.846 213.191 225.765 213.388 226.008C215.608 228.618 218.001 231.143 220.311 233.615C222.737 236.182 225.23 238.829 227.552 241.583C230.608 245.178 233.966 248.612 237.208 251.952C240.473 255.288 243.859 258.74 246.925 262.38C249.373 265.273 251.76 268.324 254.057 271.297C255.691 273.416 257.39 275.617 259.116 277.716C260.612 279.532 262.182 281.355 263.691 283.121C266.765 286.688 269.943 290.399 272.722 294.267C275.782 298.55 278.846 302.404 281.849 305.748C282.008 305.928 281.993 306.193 281.81 306.351C281.769 306.383 281.746 306.388 281.705 306.421C281.532 306.506 281.329 306.454 281.202 306.315C278.172 302.953 275.075 299.058 272.01 294.753C269.258 290.903 266.086 287.215 263.039 283.666C261.507 281.905 259.937 280.08 258.437 278.242C256.707 276.12 255.007 273.92 253.351 271.807C251.058 268.855 248.672 265.805 246.227 262.934C243.167 259.318 239.809 255.883 236.544 252.547C233.278 249.211 229.916 245.754 226.832 242.143C224.514 239.411 222.022 236.764 219.624 234.216C217.313 231.743 214.892 229.2 212.672 226.59" fill="#2B2B2B"/>
<path d="M283.735 313.278C283.561 313.363 283.358 313.312 283.227 313.15C283.068 312.971 283.106 312.701 283.288 312.542C286.883 309.606 290.92 306.05 293.424 302.065C293.55 301.872 293.821 301.789 294.021 301.937C294.215 302.061 294.297 302.329 294.148 302.527C291.549 306.627 287.475 310.238 283.817 313.213C283.821 313.236 283.781 313.268 283.735 313.278Z" fill="#2B2B2B"/>
<path d="M321.377 324.672C320.816 322.631 318.178 321.868 316.36 321.12C312.644 319.592 308.839 318.322 305.124 316.794C303.569 316.154 302.031 315.037 300.294 314.889C299.386 314.799 295.261 315.831 296.551 320.59C296.551 320.59 297.667 323.985 298.765 324.961C300.134 326.186 303.403 330.21 305.564 332.215C306.016 332.64 306.421 332.957 306.732 333.175C307.868 333.881 308.953 334.787 310.256 335.148C311.766 335.582 313.594 334.476 314.892 333.816C317.892 332.243 322.423 328.414 321.377 324.672Z" fill="#103E77"/>
<path d="M308.572 326.553C308.375 326.643 308.174 326.71 307.944 326.76C307.761 326.799 307.598 326.715 307.496 326.571C307.322 326.323 307.322 326.323 308.12 325.011C308.422 324.518 308.792 323.891 308.846 323.809C309.506 322.859 310.371 321.413 310.775 319.829C310.801 319.729 310.831 319.65 310.858 319.549C310.763 319.665 310.673 319.803 310.564 319.97C310.528 320.025 310.492 320.08 310.492 320.08L310.194 320.477C309.338 321.635 308.537 322.711 307.329 323.685C306.423 324.379 306.144 324.201 306.033 324.131C305.448 323.757 305.934 322.892 306.335 322.188C306.371 322.133 306.384 322.082 306.407 322.077C306.573 321.733 306.739 321.388 306.927 321.038C307.228 320.427 307.547 319.788 307.815 319.136C307.193 319.817 306.631 320.555 306.071 321.295C305.496 322.084 304.88 322.905 304.171 323.628C304.017 323.804 303.727 323.796 303.55 323.644C303.373 323.492 303.383 323.205 303.538 323.028C304.205 322.338 304.762 321.576 305.359 320.783C305.957 319.988 306.549 319.171 307.276 318.421C307.295 318.393 307.413 318.272 307.549 318.124C307.721 317.921 307.975 317.652 308.171 317.443C308.556 317.005 308.793 316.763 309.114 317.027C309.434 317.29 309.278 317.68 308.985 318.432C308.948 318.488 308.935 318.538 308.94 318.561C308.649 319.55 308.182 320.507 307.706 321.417C307.54 321.762 307.374 322.107 307.203 322.429C307.185 322.456 307.149 322.511 307.095 322.594C307.046 322.7 306.991 322.783 306.937 322.866C307.952 322.005 308.664 321.068 309.482 319.964L309.781 319.568C309.781 319.568 309.799 319.54 309.818 319.513C310.468 318.517 311.006 317.783 311.558 318.116C312.166 318.484 311.894 319.231 311.725 319.672C311.68 319.8 311.637 319.928 311.61 320.029C311.185 321.736 310.271 323.288 309.575 324.293C309.521 324.377 309.254 324.813 308.976 325.302C310.059 324.427 311.021 322.865 311.66 321.824L311.769 321.658C311.872 321.469 312.004 321.298 312.148 321.077C312.455 320.608 312.821 320.077 312.986 319.614C313.03 319.486 313.074 319.357 313.106 319.279C313.031 319.152 313.042 318.983 313.137 318.869L313.173 318.813C313.299 318.619 313.512 318.264 313.887 318.445C314.285 318.621 314.196 318.877 313.822 319.932C313.632 320.496 313.23 321.082 312.881 321.585C312.755 321.778 312.629 321.972 312.52 322.137L312.413 322.304C311.573 323.649 310.238 325.814 308.572 326.553Z" fill="white"/>
<path d="M312.93 332.956C311.026 333.818 308.494 333.437 306.722 332.796C306.487 332.705 306.387 332.465 306.481 332.231C306.575 331.997 306.817 331.897 307.053 331.989C308.879 332.665 311.623 333.023 313.273 331.765C314.432 330.897 315.058 329.455 315.648 328.069C315.796 327.752 315.939 327.412 316.086 327.096C316.18 326.862 316.269 326.604 316.348 326.302C316.511 325.721 316.704 325.061 317.205 324.597C317.746 324.1 318.657 323.975 319.332 323.878C319.447 323.852 319.543 323.856 319.635 323.835C319.869 323.809 320.093 323.951 320.123 324.206C320.149 324.438 320.005 324.658 319.747 324.69C319.655 324.711 319.536 324.712 319.421 324.737C318.861 324.81 318.093 324.928 317.751 325.239C317.411 325.55 317.274 326.032 317.147 326.558C317.068 326.86 316.972 327.19 316.841 327.479C316.694 327.796 316.569 328.109 316.426 328.448C315.786 329.94 315.129 331.46 313.789 332.486C313.533 332.636 313.236 332.819 312.93 332.956Z" fill="white"/>
<path d="M231.442 201.681C231.226 201.68 231.045 201.505 231.046 201.291C231.081 199.668 231.112 197.808 230.627 196.225C229.898 193.84 228.78 191.777 227.452 189.402C226.863 188.34 226.264 187.234 225.609 185.974C225.518 185.778 225.589 185.55 225.781 185.437C225.977 185.347 226.209 185.416 226.322 185.605C226.95 186.848 227.572 187.95 228.161 189.011C229.498 191.431 230.643 193.513 231.389 195.966C231.897 197.662 231.854 199.573 231.833 201.264C231.841 201.524 231.659 201.682 231.442 201.681Z" fill="#2B2B2B"/>
<path d="M182.662 202.943C182.252 202.936 181.894 202.728 181.664 202.326C180.889 201.068 180.906 200.552 181.211 199.179L181.272 198.904C182.324 194.091 185.066 190.316 188.971 188.263C194.325 185.47 200.59 184.784 207.037 184.274C209.304 184.094 211.597 183.813 213.799 183.553C216.115 183.267 218.528 182.985 220.915 182.803C221.931 182.727 223.02 182.539 224.085 182.357C225.592 182.104 227.122 181.845 228.544 181.871C228.784 181.867 228.971 182.065 228.945 182.284C228.949 182.521 228.748 182.707 228.527 182.683C227.201 182.66 225.695 182.914 224.233 183.157C223.145 183.344 222.033 183.536 220.966 183.6C218.603 183.777 216.212 184.054 213.896 184.34C211.672 184.605 209.379 184.886 207.089 185.07C200.711 185.566 194.56 186.226 189.339 188.968C185.648 190.904 183.079 194.475 182.07 199.041L182.009 199.316C181.757 200.487 181.76 200.879 182.358 201.868C182.503 202.098 182.646 202.091 182.692 202.081C183.023 202.057 183.419 201.663 183.539 201.328C183.596 201.149 183.676 200.966 183.734 200.787C184.416 199.048 184.653 198.77 184.362 196.86C184.335 196.628 184.485 196.429 184.715 196.38C184.95 196.354 185.149 196.5 185.197 196.727C185.515 198.868 185.247 199.225 184.52 201.093C184.463 201.271 184.383 201.455 184.32 201.611C184.107 202.18 183.452 202.82 182.766 202.873C182.758 202.946 182.713 202.955 182.662 202.943Z" fill="#64D8B1"/>
<path d="M246.142 118.747L252.363 101.248C252.568 100.634 253.096 100.188 253.71 100.031L258.331 98.8453C258.877 98.7039 259.348 99.2201 259.175 99.7563L250.923 122.873C250.758 123.336 250.166 123.487 249.785 123.165L246.582 120.34C246.056 119.906 245.911 119.344 246.142 118.747Z" fill="#292929"/>
<path d="M253.759 100.259C253.121 100.42 252.621 100.884 252.412 101.476L246.284 118.622C246.012 119.369 246.312 119.756 246.903 120.27L249.142 122.187C249.434 122.433 249.889 122.312 250.026 121.949L257.935 99.5725C257.998 99.4164 257.844 99.2595 257.683 99.2941L253.759 100.259Z" fill="#46ECBA"/>
<path d="M170.147 221.981C171.506 223.635 172.091 224.143 172.691 223.741C173.185 223.425 173.543 221.328 172.602 219.627C169.814 214.636 171.108 213.718 172.167 212.491C172.576 212.936 172.941 213.365 173.196 213.754C174.877 216.217 177.296 215.433 176.867 214.907C174.825 212.338 174.66 210.102 173.202 207.842C171.745 205.584 168.116 204.718 166.043 203.103C155.503 194.891 152.217 180.589 145.89 176.497C143.189 174.754 135.824 170.163 133.389 172.798C131.378 174.966 136.658 184 136.658 184C143.008 193.989 151.774 201.858 158.185 206.995C158.466 208.655 158.508 210.551 159.234 211.753C161.219 214.945 160.918 213.005 162.06 216.041C162.375 216.872 164.69 218.575 165.81 219.597C169.307 222.891 169.832 221.619 170.147 221.981Z" fill="#DE7F56"/>
<path d="M174.993 115.73C177.901 115.945 178.989 110.527 178.242 110.282C177.882 110.164 176.399 111.533 173.971 111.633C171.544 111.733 169.791 110.981 169.407 111.576C169.025 112.17 170.7 115.413 174.993 115.73Z" fill="white"/>
<path d="M288.141 95.089C290.19 91.8774 291.939 89.1482 294.482 86.327C295.256 85.4684 296.971 82.9738 297.223 82.4476C297.475 81.9213 298.301 80.3153 298.497 78.4194" stroke="#533CD6" stroke-linecap="round" stroke-linejoin="round"/>
<path d="M290.757 102.175C290.171 102.208 289.582 102.196 289.015 102.158C286.866 102.002 283.497 100.66 282.598 100.153C280.435 98.9272 278.586 97.0322 277.076 94.4897C275.721 92.1709 274.688 89.3451 274.066 86.2864C273.102 81.3627 273.7 76.6056 275.843 72.5509C277.985 68.473 281.522 65.3622 286.076 63.5658C287.731 62.8894 289.401 62.4912 291.065 62.3959C294.746 62.1851 298.176 63.3614 301.045 65.826C303.964 68.3344 305.981 71.9413 306.888 76.2634C308.017 81.6197 307.28 87.2224 304.803 92.0173C302.328 96.8356 298.431 100.246 293.806 101.628C292.789 101.942 291.765 102.117 290.757 102.175Z" fill="#F7AB3E"/>
<path d="M291.074 62.5584C292.879 62.455 294.657 62.7023 296.337 63.2808C297.993 63.8606 299.548 64.7486 300.934 65.9488C302.344 67.1478 303.534 68.6383 304.526 70.3498C305.545 72.1294 306.271 74.1351 306.725 76.2962C307.278 78.9866 307.388 81.7256 307.004 84.4696C306.639 87.1196 305.843 89.6314 304.659 91.956C303.475 94.2806 301.942 96.2761 300.108 97.9168C298.206 99.6078 296.087 100.799 293.776 101.513C292.781 101.803 291.757 101.978 290.772 102.034C290.186 102.068 289.621 102.054 289.054 102.017C286.929 101.859 283.584 100.538 282.685 100.031C280.546 98.8278 278.721 96.9315 277.236 94.4108C275.882 92.1153 274.849 89.2895 274.253 86.2525C273.759 83.7914 273.668 81.377 273.98 79.0325C274.272 76.7358 274.971 74.5786 276.012 72.6112C278.131 68.5579 281.646 65.4716 286.155 63.7011C287.762 63.0274 289.41 62.6538 291.074 62.5584ZM291.057 62.257C289.393 62.3524 287.698 62.7286 286.021 63.4295C276.638 67.1311 271.938 76.2413 273.927 86.3178C275.113 92.2524 277.944 97.7205 282.512 100.297C283.387 100.782 286.781 102.147 289.002 102.322C289.568 102.359 290.157 102.372 290.767 102.337C291.774 102.28 292.799 102.104 293.841 101.812C303.481 98.9101 309.359 87.3827 307.005 76.2569C305.148 67.2431 298.512 61.83 291.057 62.257Z" fill="#FFD550"/>
<path d="M292.457 84.2327L292.355 84.4945L305.947 89.8115C305.989 89.7161 306.006 89.622 306.048 89.5266L292.457 84.2327Z" fill="#FFD550"/>
<path d="M290.103 90.7659L290 91.0277L302.437 95.8991C302.504 95.8255 302.569 95.7287 302.636 95.6551L290.103 90.7659Z" fill="#FFD550"/>
<path d="M291.867 85.8486L291.764 86.1104L305.26 91.3865C305.302 91.2911 305.345 91.2188 305.386 91.1233L291.867 85.8486Z" fill="#FFD550"/>
<path d="M291.279 87.4878L291.177 87.7496L304.456 92.9451C304.497 92.8497 304.564 92.776 304.606 92.6806L291.279 87.4878Z" fill="#FFD550"/>
<path d="M289.538 92.4032L289.435 92.665L301.223 97.2712C301.289 97.1976 301.379 97.1226 301.446 97.049L289.538 92.4032Z" fill="#FFD550"/>
<path d="M286.595 100.552L286.492 100.814L290.341 102.315C290.575 102.301 290.81 102.288 291.044 102.274L286.595 100.552Z" fill="#FFD550"/>
<path d="M287.184 98.9363L287.082 99.198L293.77 101.815C293.793 101.814 293.815 101.789 293.862 101.787C293.978 101.757 294.116 101.703 294.231 101.673L287.184 98.9363Z" fill="#FFD550"/>
<path d="M288.926 94.0206L288.823 94.2824L299.769 98.5646C299.858 98.4896 299.948 98.4147 300.014 98.3411L288.926 94.0206Z" fill="#FFD550"/>
<path d="M288.337 95.6597L288.234 95.9215L298.12 99.7758C298.21 99.7009 298.325 99.6477 298.415 99.5728L288.337 95.6597Z" fill="#FFD550"/>
<path d="M287.773 97.2972L287.67 97.5591L296.186 100.886C296.301 100.833 296.416 100.78 296.553 100.702L287.773 97.2972Z" fill="#FFD550"/>
<path d="M290.691 89.1268L290.589 89.3886L303.507 94.4416C303.574 94.3681 303.615 94.2727 303.681 94.1991L290.691 89.1268Z" fill="#FFD550"/>
<path d="M297.166 71.1668L297.062 71.4286L306.781 75.2226C306.751 75.1079 306.721 74.9933 306.69 74.8788L297.166 71.1668Z" fill="#FFD550"/>
<path d="M296.575 72.7827L296.473 73.0445L307.202 77.246C307.172 77.1313 307.165 77.0154 307.135 76.9009L296.575 72.7827Z" fill="#FFD550"/>
<path d="M297.752 69.5284L297.65 69.7901L306.118 73.0963C306.064 72.9831 306.032 72.8454 305.978 72.7322L297.752 69.5284Z" fill="#FFD550"/>
<path d="M298.341 67.889L298.239 68.1508L305.142 70.8489C305.065 70.7138 305.01 70.5775 304.931 70.4423L298.341 67.889Z" fill="#FFD550"/>
<path d="M298.929 66.2498L298.826 66.5116L303.614 68.3775C303.51 68.2205 303.383 68.065 303.283 67.9312L298.929 66.2498Z" fill="#FFD550"/>
<path d="M294.81 77.6999L294.708 77.9616L307.458 82.9547C307.476 82.8606 307.469 82.7447 307.488 82.6505L294.81 77.6999Z" fill="#FFD550"/>
<path d="M294.221 79.3157L294.119 79.5776L307.254 84.7117C307.271 84.6176 307.29 84.5235 307.306 84.4062L294.221 79.3157Z" fill="#FFD550"/>
<path d="M295.987 74.4219L295.885 74.6837L307.455 79.209C307.449 79.0931 307.443 79.0004 307.437 78.8845L295.987 74.4219Z" fill="#FFD550"/>
<path d="M293.634 80.9549L293.53 81.2167L306.93 86.4517C306.948 86.3575 306.966 86.2635 306.985 86.1693L293.634 80.9549Z" fill="#FFD550"/>
<path d="M293.044 82.594L292.942 82.8557L306.486 88.1524C306.504 88.0583 306.545 87.9629 306.563 87.8687L293.044 82.594Z" fill="#FFD550"/>
<path d="M295.4 76.0611L295.296 76.3229L307.518 81.1137C307.512 80.9976 307.506 80.9049 307.523 80.7877L295.4 76.0611Z" fill="#FFD550"/>
<path d="M288.32 101.082C284.499 101.301 280.941 99.9455 278.054 97.1794C275.315 94.5211 273.305 90.6345 272.418 86.2416C271.428 81.2729 271.984 76.1924 273.951 71.9384C276.023 67.469 279.48 64.1767 283.941 62.4089C285.595 61.7325 287.266 61.3343 288.93 61.239C292.61 61.0282 296.041 62.2044 298.91 64.6691C301.829 67.1775 303.847 70.7844 304.752 75.1065C305.882 80.4627 305.145 86.0655 302.668 90.8605C300.192 95.6787 296.296 99.0893 291.671 100.471C290.563 100.837 289.422 101.019 288.32 101.082Z" fill="#FFD550"/>
<path d="M288.962 61.3997C290.767 61.2964 292.545 61.5435 294.225 62.122C295.88 62.7018 297.437 63.5899 298.822 64.7902C300.231 65.9891 301.422 67.4797 302.413 69.1911C303.433 70.9707 304.159 72.9765 304.612 75.1376C305.166 77.8279 305.276 80.567 304.893 83.311C304.527 85.9611 303.73 88.4728 302.546 90.7974C301.362 93.122 299.831 95.1176 297.995 96.7582C296.094 98.4492 293.975 99.6409 291.664 100.355C290.553 100.674 289.413 100.879 288.335 100.941C284.537 101.159 281.027 99.8241 278.188 97.0784C276.82 95.7609 275.647 94.1762 274.695 92.3229C273.741 90.4698 273.035 88.4163 272.603 86.2075C272.11 83.7463 271.99 81.2404 272.252 78.8291C272.513 76.4177 273.134 74.1254 274.12 72.0216C275.101 69.8714 276.451 67.9793 278.078 66.3971C279.77 64.7415 281.79 63.4624 284.019 62.567C285.627 61.8932 287.297 61.4951 288.962 61.3997ZM288.946 61.1215C287.281 61.2168 285.587 61.593 283.91 62.294C274.527 65.9956 270.314 76.2179 272.302 86.2712C274.086 95.2428 280.288 101.704 288.328 101.244C289.43 101.181 290.57 100.976 291.728 100.654C301.369 97.7515 307.246 86.2241 304.892 75.0982C303.013 66.1089 296.4 60.6945 288.946 61.1215Z" fill="#FFE652"/>
<path d="M288.93 63.3088C290.57 63.2148 292.158 63.4264 293.694 63.9665C295.205 64.4849 296.593 65.2895 297.854 66.3806C300.476 68.6268 302.284 71.8735 303.095 75.759C303.611 78.1956 303.682 80.681 303.354 83.1427C303.02 85.5349 302.304 87.8095 301.225 89.9187C300.146 92.0279 298.768 93.8284 297.111 95.2961C295.387 96.814 293.474 97.9007 291.37 98.5331C290.352 98.8241 289.351 98.9978 288.367 99.0542C284.944 99.2502 281.77 98.0361 279.206 95.5539C277.986 94.3674 276.914 92.9165 276.066 91.2434C275.194 89.5716 274.57 87.6997 274.174 85.7215C273.284 81.2589 273.774 76.694 275.555 72.8694C276.455 70.9333 277.65 69.213 279.12 67.7794C280.657 66.2721 282.472 65.1212 284.496 64.3305C285.943 63.7358 287.429 63.3947 288.93 63.3088ZM288.912 63.0073C287.412 63.0932 285.88 63.437 284.339 64.0603C275.854 67.4081 272.032 76.6541 273.825 85.7879C275.442 93.9081 281.046 99.7527 288.336 99.3351C289.343 99.2774 290.368 99.1024 291.41 98.8101C300.149 96.1922 305.454 85.7445 303.348 75.6747C301.658 67.5121 295.663 62.6206 288.912 63.0073Z" fill="#F48521"/>
<path d="M295.784 79.9243C294.93 79.3684 293.838 79.1982 292.51 79.4139L292.48 79.2993C293.475 78.6141 294.11 77.7867 294.429 76.7912C294.748 75.7958 294.809 74.8151 294.614 73.8491C294.42 72.9296 294.096 72.2036 293.667 71.6931C293.214 71.184 292.678 70.8424 292.056 70.6687C291.411 70.4962 290.705 70.4901 289.889 70.6066C289.423 70.6799 288.958 70.7763 288.472 70.9204L287.682 66.9873L285.52 67.8323L286.306 71.696L284.832 72.2458L284.048 68.4052L281.885 69.2271L282.644 73.0458L282.23 73.209L281.676 73.4036L279.097 74.3425L279.624 76.9879L282.228 76.0476L285.109 90.2144L281.851 91.2386L282.405 93.9289L285.687 92.9266L286.612 92.641L286.658 92.6151L287.436 96.3629L289.656 95.7006L288.876 91.9297L290.377 91.4482L291.158 95.2423L293.354 94.5581L292.569 90.7177C293.283 90.4442 293.945 90.1037 294.558 89.7197C295.352 89.2089 296 88.6134 296.501 87.91C297.001 87.2066 297.356 86.4186 297.543 85.5703C297.727 84.6988 297.721 83.7686 297.498 82.7344C297.187 81.426 296.639 80.4802 295.784 79.9243ZM291.621 75.3933C291.816 76.3359 291.675 77.1584 291.244 77.8577C290.791 78.5584 289.954 79.1415 288.71 79.585L286.473 80.3646L285.363 74.9374L287.666 74.0842C288.817 73.6461 289.728 73.5473 290.374 73.743C291.02 73.9387 291.427 74.4738 291.621 75.3933ZM293.811 86.5285C293.22 87.3068 292.268 87.9198 290.952 88.3442L288.273 89.2188L286.968 82.849L289.644 81.928C290.958 81.4803 292.034 81.3723 292.825 81.6293C293.616 81.8865 294.124 82.5554 294.348 83.5895C294.558 84.7873 294.401 85.7503 293.811 86.5285Z" fill="#F48521"/>
<path d="M292.424 22.5105C293.018 24.2447 294.154 25.5989 294.508 26.0206C294.862 26.4656 297.022 28.4591 297.929 29.1051C300.943 31.2125 303.208 33.4094 305.827 36.0047" stroke="#533CD6" stroke-linecap="round" stroke-linejoin="round"/>
<path d="M301.923 43.3936C297.271 43.0784 292.832 40.7036 289.45 36.6863C286.07 32.692 284.154 27.567 284.039 22.269C283.935 17.9941 285.055 14.1377 287.259 11.1497C289.42 8.23404 292.417 6.36399 295.911 5.76836C297.517 5.4902 299.188 5.51081 300.874 5.78653C305.571 6.49464 309.576 8.66163 312.498 12.0539C315.396 15.4243 317.009 19.7756 317.169 24.629C317.272 27.6476 316.897 30.5541 316.121 33.0181C315.266 35.7426 313.934 37.9361 312.168 39.5496C311.43 40.22 308.534 42.2006 306.547 42.8262C306.016 42.9963 305.458 43.1213 304.9 43.2231C303.945 43.3941 302.961 43.4504 301.923 43.3936Z" fill="#F7AB3E"/>
<path d="M300.882 5.92586C305.532 6.63666 309.512 8.78179 312.41 12.1522C313.821 13.7931 314.94 15.6833 315.719 17.7791C316.524 19.92 316.961 22.2216 317.028 24.6373C317.13 27.6328 316.754 30.516 316.002 32.9788C315.145 35.6801 313.836 37.8723 312.069 39.4624C311.331 40.1329 308.48 42.0877 306.494 42.7133C305.963 42.8833 305.429 43.007 304.87 43.1088C303.915 43.2798 302.929 43.313 301.916 43.278C299.579 43.1327 297.307 42.4485 295.146 41.2694C293.058 40.1326 291.18 38.565 289.541 36.6348C287.902 34.7045 286.624 32.4977 285.686 30.0853C284.719 27.5814 284.216 24.958 284.158 22.3089C284.107 20.1715 284.364 18.1093 284.938 16.2152C285.493 14.392 286.29 12.7177 287.36 11.2837C288.407 9.85109 289.681 8.6846 291.111 7.78839C292.564 6.86761 294.199 6.26211 295.923 5.97726C297.551 5.65135 299.196 5.65015 300.882 5.92586ZM283.898 22.2774C284.128 33.2689 292.181 42.8817 301.907 43.5344C302.969 43.5899 303.976 43.5322 304.931 43.3612C305.489 43.2594 306.047 43.1344 306.578 42.9644C308.636 42.3347 311.552 40.3064 312.245 39.6618C316 36.2361 317.481 30.4744 317.31 24.6212C316.999 14.6813 310.567 7.09275 300.913 5.6449C299.156 5.35 297.486 5.35257 295.903 5.62942C288.776 6.85192 283.718 13.3769 283.898 22.2774Z" fill="#FFD550"/>
<path d="M287.733 34.6215C287.785 34.7115 287.836 34.7784 287.889 34.8685L299.545 26.9184L299.391 26.6946L287.733 34.6215Z" fill="#FFD550"/>
<path d="M292.277 39.6427C292.352 39.7082 292.426 39.7737 292.523 39.8379L303.184 32.5732L303.03 32.3494L292.277 39.6427Z" fill="#FFD550"/>
<path d="M288.705 35.9854C288.756 36.0523 288.831 36.1411 288.882 36.208L300.447 28.3096L300.293 28.0857L288.705 35.9854Z" fill="#FFD550"/>
<path d="M289.79 37.272C289.864 37.3376 289.915 37.4045 289.991 37.4931L301.375 29.7218L301.221 29.498L289.79 37.272Z" fill="#FFD550"/>
<path d="M293.726 40.6995C293.801 40.7651 293.896 40.8061 293.994 40.8703L304.113 33.9857L303.959 33.7618L293.726 40.6995Z" fill="#FFD550"/>
<path d="M304.676 43.4222C304.91 43.3856 305.143 43.349 305.352 43.3138L308.656 41.0541L308.502 40.8303L304.676 43.4222Z" fill="#FFD550"/>
<path d="M301.553 43.5077C301.672 43.5242 301.814 43.5393 301.931 43.5327C301.955 43.5313 301.978 43.53 302.002 43.5286L307.751 39.6171L307.597 39.3933L301.553 43.5077Z" fill="#FFD550"/>
<path d="M295.332 41.6547C295.428 41.6957 295.526 41.7599 295.623 41.8009L305.016 35.3998L304.862 35.176L295.332 41.6547Z" fill="#FFD550"/>
<path d="M297.119 42.4593C297.239 42.499 297.336 42.54 297.455 42.5796L305.943 36.7889L305.789 36.565L297.119 42.4593Z" fill="#FFD550"/>
<path d="M299.154 43.1109C299.275 43.1504 299.417 43.1655 299.536 43.2053L306.848 38.2262L306.694 38.0024L299.154 43.1109Z" fill="#FFD550"/>
<path d="M290.965 38.5077C291.04 38.5733 291.114 38.6388 291.188 38.7044L302.278 31.136L302.124 30.9122L290.965 38.5077Z" fill="#FFD550"/>
<path d="M283.939 20.9259C283.945 21.0418 283.928 21.1591 283.935 21.2751L292.263 15.5866L292.11 15.3627L283.939 20.9259Z" fill="#FFD550"/>
<path d="M283.937 22.95C283.943 23.066 283.95 23.1819 283.955 23.2746L293.168 17.0007L293.014 16.7768L283.937 22.95Z" fill="#FFD550"/>
<path d="M284.119 18.752C284.103 18.8692 284.087 19.0098 284.07 19.127L291.336 14.174L291.182 13.9502L284.119 18.752Z" fill="#FFD550"/>
<path d="M284.619 16.3725C284.58 16.5144 284.541 16.6561 284.502 16.7979L290.409 12.7612L290.255 12.5374L284.619 16.3725Z" fill="#FFD550"/>
<path d="M285.638 13.6392C285.553 13.8069 285.493 13.9732 285.408 14.1408L289.505 11.3476L289.351 11.1238L285.638 13.6392Z" fill="#FFD550"/>
<path d="M284.86 28.4112C284.889 28.5026 284.918 28.594 284.948 28.7086L295.88 21.2425L295.725 21.0187L284.86 28.4112Z" fill="#FFD550"/>
<path d="M285.427 30.0772C285.456 30.1686 285.508 30.2587 285.536 30.3502L296.808 22.6553L296.654 22.4314L285.427 30.0772Z" fill="#FFD550"/>
<path d="M284.118 24.8708C284.124 24.9867 284.153 25.0781 284.159 25.1941L294.073 18.4377L293.919 18.2138L284.118 24.8708Z" fill="#FFD550"/>
<path d="M286.105 31.6668C286.157 31.7568 286.186 31.8482 286.238 31.9383L297.735 24.091L297.581 23.8671L286.105 31.6668Z" fill="#FFD550"/>
<path d="M286.873 33.1584C286.925 33.2484 286.976 33.3153 287.005 33.4068L298.639 25.4814L298.485 25.2575L286.873 33.1584Z" fill="#FFD550"/>
<path d="M284.433 26.6906C284.462 26.782 284.468 26.898 284.497 26.9895L294.999 19.8271L294.845 19.6032L284.433 26.6906Z" fill="#FFD550"/>
<path d="M303.669 41.8515C299.017 41.5363 294.578 39.1616 291.196 35.1442C287.816 31.15 285.9 26.025 285.785 20.727C285.681 16.452 286.8 12.5956 289.005 9.60764C291.166 6.69199 294.163 4.82193 297.656 4.2263C299.263 3.94814 300.934 3.96877 302.62 4.24447C307.222 4.93477 311.191 7.31315 314.135 11.0764C316.928 14.6622 318.536 19.3396 318.699 24.2393C318.83 28.5825 317.795 32.69 315.786 35.7831C313.666 39.0221 310.632 41.0572 306.952 41.6867C305.927 41.8617 304.802 41.9262 303.669 41.8515Z" fill="#FFD550"/>
<path d="M302.629 4.40703C304.954 4.76242 307.115 5.54599 309.089 6.73583C310.965 7.88468 312.65 9.37024 314.048 11.198C315.42 12.9806 316.524 15.0113 317.286 17.2244C318.072 19.4594 318.49 21.8318 318.583 24.2694C318.659 26.4287 318.427 28.5359 317.928 30.4956C317.428 32.432 316.682 34.1963 315.689 35.7423C313.591 38.9567 310.579 40.9673 306.968 41.5696C305.92 41.7459 304.818 41.809 303.686 41.7576C301.35 41.6121 299.076 40.9281 296.915 39.749C294.828 38.6122 292.951 37.0447 291.312 35.1144C289.672 33.1843 288.394 30.9774 287.456 28.565C286.49 26.0611 285.987 23.4377 285.929 20.7886C285.877 18.6512 286.135 16.589 286.709 14.6949C287.263 12.8718 288.06 11.1975 289.131 9.76349C290.178 8.33085 291.451 7.16444 292.881 6.26823C294.334 5.34745 295.969 4.74196 297.693 4.45711C299.296 4.10933 300.943 4.13132 302.629 4.40703ZM285.667 20.7339C285.897 31.7254 293.95 41.3381 303.677 41.9907C304.857 42.0628 305.958 41.9997 307.007 41.8233C314.716 40.5209 319.134 33.0787 318.863 24.2301C318.552 14.2902 312.338 5.57253 302.682 4.1015C300.925 3.80667 299.255 3.80924 297.671 4.08608C290.522 5.3099 285.465 11.858 285.667 20.7339Z" fill="#FFE652"/>
<path d="M302.59 6.1769C304.678 6.49937 306.647 7.20087 308.425 8.28559C310.132 9.32788 311.642 10.6606 312.913 12.3095C315.426 15.539 316.866 19.7375 317.023 24.1258C317.089 26.0995 316.891 27.9721 316.427 29.7436C315.986 31.4906 315.303 33.0885 314.395 34.49C312.515 37.3896 309.774 39.2217 306.513 39.7575C305.558 39.9285 304.572 39.9617 303.559 39.9267C301.458 39.7911 299.4 39.1644 297.435 38.1137C295.541 37.0822 293.837 35.6675 292.372 33.9134C290.885 32.1606 289.737 30.179 288.881 27.9712C288.023 25.7171 287.558 23.3472 287.514 20.9301C287.435 17.0958 288.437 13.6416 290.4 10.9699C291.338 9.6831 292.5 8.61611 293.793 7.79753C295.111 6.97758 296.584 6.42789 298.143 6.15242C299.566 5.93133 301.07 5.91501 302.59 6.1769ZM287.232 20.9462C287.426 30.893 294.722 39.6185 303.552 40.2063C304.612 40.2619 305.621 40.2041 306.576 40.033C313.539 38.8432 317.552 32.1221 317.328 24.1083C317.048 15.1204 311.421 7.2066 302.668 5.89326C301.078 5.63536 299.549 5.62986 298.127 5.87414C291.629 6.96759 287.054 12.9065 287.232 20.9462Z" fill="#F48521"/>
<path d="M309.379 24.913L304.813 28.9669C304.767 28.9928 304.722 29.0186 304.675 29.0213C304.606 29.0486 304.511 29.0307 304.415 28.9897L298.08 25.5602C298.008 25.5179 297.941 25.5915 298.015 25.657L305.37 33.3556C305.469 33.4429 305.589 33.4825 305.683 33.4771C305.8 33.4705 305.891 33.4188 305.933 33.3233L309.478 25.0005C309.521 24.9282 309.446 24.8627 309.379 24.913Z" fill="#F48521"/>
<path d="M309.397 21.5615L300.658 11.034C300.48 10.8115 300.152 10.8302 300.072 11.0675L296.505 22.2999C296.466 22.4418 296.547 22.6232 296.718 22.7297L303.877 26.6007C303.951 26.6429 304.022 26.6621 304.092 26.6581C304.163 26.654 304.208 26.6282 304.254 26.6023L309.401 22.0266C309.533 21.8794 309.523 21.6939 309.397 21.5615Z" fill="#F48521"/>
<path d="M346.301 9.22347L344.985 10.0666L341.426 12.3877L340.11 13.2308L340.527 20.5124L341.93 21.1997L345.755 23.0979L347.158 23.7853L348.474 22.9422L352.01 20.6224L353.326 19.7793L352.909 12.4977L351.505 11.8103L347.704 9.91085L346.301 9.22347ZM343.157 18.8029L342.917 14.6055L346.476 12.2845L350.277 14.184L350.517 18.3814L346.958 20.7024L343.157 18.8029Z" fill="#46ECBA"/>
<path d="M256.17 55.9028L267.006 51.3037L265.921 48.7834L258.941 51.7424L258.936 48.7648L263.55 46.8021L262.465 44.2817L258.954 45.7858L258.949 42.0171L256.173 42.0132L256.174 46.9453L252.294 48.5868L253.379 51.1071L256.18 49.923L256.17 55.9028Z" fill="#46ECBA"/>
<path d="M340.321 56.4342L342.843 56.5224L337.365 61.4894C335.375 63.2786 332.288 63.1761 330.46 61.2334L325.378 55.8708L327.923 55.9576L331.778 60.018C332.954 61.2534 334.887 61.3289 336.161 60.1856L340.321 56.4342Z" fill="#46ECBA"/>
<path d="M327.336 70.3228L324.814 70.2347L330.314 65.2433C332.304 63.4542 335.391 63.5565 337.219 65.4992L342.325 70.8835L339.804 70.7952L335.923 66.6901C334.747 65.4546 332.814 65.3793 331.539 66.5224L327.336 70.3228Z" fill="#46ECBA"/>
</g>
<defs>
<clipPath id="clip0_1:38">
<rect width="368" height="356" fill="white" transform="translate(0 21.0441) rotate(-3.27824)"/>
</clipPath>
</defs>
</svg>
